#!OML:ASF G:\JayActor3\Patient Classification 1\Patient 1\Session 5\male.ASF
:FULLY-SPECIFIED
:DEGREES
711
root -8.52696 14.3863 -4.92469 227.672 -84.2725 -214.336
lowerback 33.6336 -0.271356 -1.34743
upperback 6.58821 -1.88471 -2.45191
thorax -9.94888 -1.15541 -1.11105
lowerneck -4.03348 1.40015 1.48622
upperneck -16.945 1.28192 -0.503159
head -4.91935 0.302566 -0.448295
rclavicle -1.31198e-014 1.86858e-014
rhumerus -23.5884 4.44355 -87.9784
rradius 50.2072
rwrist -11.979
rhand -20.2841 -8.28606
rfingers 7.12502
rthumb 6.06554 -38.1792
lclavicle -1.31198e-014 1.86858e-014
lhumerus -20.6249 -2.1909 80.8086
lradius 48.2994
lwrist 30.0075
lhand -18.5472 12.8403
lfingers 7.12502
lthumb 7.74219 42.6785
rfemur -78.7373 -0.464936 18.67
rtibia 83.4869
rfoot -19.3605 -8.19037
rtoes -10.883
lfemur -59.1983 8.65268 -33.0602
ltibia 73.4457
lfoot -28.1851 0.0696327
ltoes -12.044
712
root -8.63112 14.3964 -4.92062 228.12 -84.2693 -214.763
lowerback 33.6214 -0.28751 -1.32694
upperback 6.60104 -1.89754 -2.45008
thorax -9.93066 -1.16208 -1.11547
lowerneck -4.0213 1.41776 1.52176
upperneck -16.977 1.29416 -0.587574
head -4.93296 0.309699 -0.484013
rclavicle 1.31198e-014 2.90226e-014
rhumerus -23.6015 4.47245 -87.9831
rradius 50.0915
rwrist -11.886
rhand -20.2636 -8.26893
rfingers 7.12502
rthumb 6.08537 -38.1615
lclavicle 1.31198e-014 2.90226e-014
lhumerus -20.6012 -2.14593 80.8559
lradius 48.2424
lwrist 29.9491
lhand -18.6141 12.8601
lfingers 7.12502
lthumb 7.67762 42.7007
rfemur -78.871 -0.378835 18.8263
rtibia 81.0785
rfoot -19.6187 -8.47638
rtoes -10.726
lfemur -58.8207 8.81557 -33.1506
ltibia 73.5301
lfoot -28.2523 0.152279
ltoes -12.2084
713
root -8.73409 14.4066 -4.91792 228.454 -84.2706 -215.062
lowerback 33.6171 -0.300205 -1.30291
upperback 6.59932 -1.90385 -2.44567
thorax -9.9316 -1.16516 -1.12131
lowerneck -4.00382 1.43576 1.56933
upperneck -17.0039 1.30612 -0.682532
head -4.94555 0.316738 -0.525519
rclavicle 2.38542e-014 4.29375e-014
rhumerus -23.6203 4.49292 -87.9877
rradius 49.9678
rwrist -11.7576
rhand -20.2221 -8.25381
rfingers 7.12502
rthumb 6.12544 -38.1453
lclavicle 2.38542e-014 4.29375e-014
lhumerus -20.6063 -2.11632 80.9048
lradius 48.2059
lwrist 29.8855
lhand -18.6634 12.8964
lfingers 7.12502
lthumb 7.63004 42.7387
rfemur -78.9576 -0.280355 18.9887
rtibia 78.6064
rfoot -19.8093 -8.70881
rtoes -10.2972
lfemur -58.4656 8.9708 -33.2285
ltibia 73.6083
lfoot -28.276 0.237403
ltoes -12.1824
714
root -8.8361 14.4173 -4.91661 228.7 -84.2836 -215.268
lowerback 33.6304 -0.313263 -1.2715
upperback 6.58296 -1.9073 -2.43702
thorax -9.95557 -1.16644 -1.12732
lowerneck -3.97568 1.45317 1.61956
upperneck -17.0299 1.31804 -0.77643
head -4.95989 0.323757 -0.56727
rclavicle -2.8625e-014 -1.78906e-014
rhumerus -23.6525 4.50079 -87.9914
rradius 49.846
rwrist -11.5879
rhand -20.1444 -8.25662
rfingers 7.12502
rthumb 6.20039 -38.1459
lclavicle -2.8625e-014 -1.78906e-014
lhumerus -20.6444 -2.10136 80.957
lradius 48.1894
lwrist 29.8271
lhand -18.7063 12.9306
lfingers 7.12502
lthumb 7.58864 42.7745
rfemur -78.9877 -0.171893 19.153
rtibia 76.0807
rfoot -19.9341 -8.91133
rtoes -9.71455
lfemur -58.1206 9.10845 -33.2859
ltibia 73.6838
lfoot -28.2619 0.33698
ltoes -12.0601
715
root -8.93763 14.4278 -4.91671 228.85 -84.2992 -215.375
lowerback 33.6428 -0.320607 -1.24302
upperback 6.56435 -1.90382 -2.42391
thorax -9.98131 -1.16436 -1.12967
lowerneck -3.93882 1.46933 1.67013
upperneck -17.0619 1.32836 -0.870405
head -4.97827 0.32993 -0.609227
rclavicle 7.55382e-015 -7.95139e-015
rhumerus -23.6837 4.50187 -87.9927
rradius 49.7279
rwrist -11.4129
rhand -20.0726 -8.26424
rfingers 7.12502
rthumb 6.26974 -38.1514
lclavicle 7.55382e-015 -7.95139e-015
lhumerus -20.6954 -2.10039 81.0143
lradius 48.1862
lwrist 29.7784
lhand -18.7386 12.9659
lfingers 7.12502
lthumb 7.55747 42.8109
rfemur -78.9629 -0.0451591 19.3085
rtibia 73.5178
rfoot -19.9982 -9.08797
rtoes -9.034
lfemur -57.7892 9.22687 -33.3237
ltibia 73.7661
lfoot -28.215 0.444027
ltoes -11.8516
